<?xml version="1.0" encoding="UTF-8"?>
<svg width="20px" height="20px" viewBox="0 0 20 20" version="1.1" xmlns="http://www.w3.org/2000/svg" xmlns:xlink="http://www.w3.org/1999/xlink">
    <!-- Generator: sketchtool 55.2 (78181) - https://sketchapp.com -->
    <title>993D1BD6-EA0E-406B-AEA1-53F7665029B8@1x</title>
    <desc>Created with sketchtool.</desc>
    <g id="Emails" stroke="none" stroke-width="1" fill="none" fill-rule="evenodd">
        <g id="Email" transform="translate(-675.000000, -640.000000)" fill="#CB2B99" fill-rule="nonzero">
            <g id="Group-2" transform="translate(430.000000, 640.000000)">
                <g id="icon/social/facebook" transform="translate(245.000000, 0.000000)">
                    <path d="M18.1673175,0 L1.8326825,0 C0.833333333,0 0,0.833333333 0,1.8326825 L0,18.1673175 C0,19.1666667 0.833333333,20 1.8326825,20 L10,20 L10,11.6666667 L7.5,11.6666667 L7.5,9.16666667 L10,9.16666667 L10,6.66666667 C10,4.58333333 10.8333333,3.33333333 13.3333333,3.33333333 L15.8333333,3.33333333 L15.8333333,5.83333333 L14.7493492,5.83333333 C14.0006508,5.83333333 13.3333333,6.50065083 13.3333333,7.24934917 L13.3333333,9.16666667 L16.6666667,9.16666667 L16.25,11.6666667 L13.3333333,11.6666667 L13.3333333,20 L18.1673175,20 C19.1666667,20 20,19.1666667 20,18.1673175 L20,1.8326825 C20,0.833333333 19.1666667,0 18.1673175,0 Z" id="Path"></path>
                </g>
            </g>
        </g>
    </g>
</svg>