<?xml version="1.0" encoding="UTF-8"?>
<svg width="293px" height="165px" viewBox="0 0 293 165" version="1.1" xmlns="http://www.w3.org/2000/svg" xmlns:xlink="http://www.w3.org/1999/xlink">
    <!-- Generator: sketchtool 55.2 (78181) - https://sketchapp.com -->
    <title>2A40AF5E-3874-4745-9FDF-0D0F728E4897</title>
    <desc>Created with sketchtool.</desc>
    <g id="Emails" stroke="none" stroke-width="1" fill="none" fill-rule="evenodd">
        <g id="Email" transform="translate(-319.000000, -110.000000)" fill-rule="nonzero">
            <g id="fogg-message-sent" transform="translate(319.000000, 110.000000)">
                <g id="Group">
                    <g transform="translate(34.785453, 0.000000)" id="Path">
                        <polygon fill="#EAE8A4" points="0 21.509434 36.9151747 76 257.696316 0"></polygon>
                        <g transform="translate(11.358515, 0.000000)" fill="#AABCC1" opacity="0.4">
                            <polygon points="0.354953603 20.5056604 35.9213046 72.4150943 36.6312118 72.1283019 1.34882369 20.4339623"></polygon>
                            <polygon points="12.9203111 19.4301887 46.6409034 68.6867925 47.3508106 68.4716981 13.9141812 19.3584906"></polygon>
                            <polygon points="25.414678 18.4264151 57.3605022 65.0301887 58.0704094 64.7433962 26.4795388 18.354717"></polygon>
                            <polygon points="37.9800355 17.3509434 68.1510917 61.3018868 68.7900082 61.0867925 38.9739056 17.2792453"></polygon>
                            <polygon points="50.4744023 16.2754717 78.8706905 57.645283 79.509607 57.3584906 51.4682724 16.2037736"></polygon>
                            <polygon points="63.0397599 15.2716981 89.5902893 53.9169811 90.3001966 53.7018868 64.0336299 15.2"></polygon>
                            <polygon points="75.5341267 14.1962264 100.309888 50.2603774 101.019795 49.9735849 76.5279968 14.1245283"></polygon>
                            <polygon points="88.0994842 13.1924528 111.029487 46.5320755 111.739394 46.3169811 89.0933543 13.1207547"></polygon>
                            <polygon points="100.593851 12.1169811 121.749086 42.8754717 122.458993 42.5886792 101.587721 12.045283"></polygon>
                            <polygon points="113.159209 11.1132075 132.468685 39.1471698 133.178592 38.9320755 114.153079 11.0415094"></polygon>
                            <polygon points="125.724566 10.0377358 143.188283 35.490566 143.898191 35.2037736 126.647445 9.96603774"></polygon>
                            <polygon points="138.218933 8.96226415 153.907882 31.7622642 154.617789 31.5471698 139.212803 8.89056604"></polygon>
                            <polygon points="150.7133 7.95849057 164.698472 28.1056604 165.337388 27.8188679 151.70717 7.88679245"></polygon>
                            <polygon points="163.278657 6.88301887 175.418071 24.3773585 176.127978 24.1622642 164.272527 6.81132075"></polygon>
                            <polygon points="175.844015 5.87924528 186.137669 20.7207547 186.847577 20.4339623 176.837885 5.80754717"></polygon>
                            <polygon points="188.338382 4.80377358 196.857268 16.9924528 197.567175 16.7773585 189.332252 4.73207547"></polygon>
                            <polygon points="200.832748 3.72830189 207.576867 13.3358491 208.286774 13.0490566 201.826619 3.65660377"></polygon>
                            <polygon points="213.398106 2.7245283 218.296466 9.60754717 219.006373 9.39245283 214.391976 2.65283019"></polygon>
                            <polygon points="226.886343 1.57735849 225.963464 1.6490566 229.016065 5.9509434 229.725972 5.66415094"></polygon>
                            <polygon points="239.309719 0.573584906 238.315849 0.645283019 239.522691 2.29433962 240.303589 2.00754717"></polygon>
                        </g>
                    </g>
                    <g transform="translate(24.136845, 0.000000)" id="Path">
                        <polygon fill="#D8CC87" points="0 31.5471698 47.5637828 76 268.344924 0"></polygon>
                        <g transform="translate(11.358515, 0.716981)" fill="#95AAAF" opacity="0.4">
                            <polygon points="0.638916485 29.3962264 46.8538756 71.554717 47.6347735 71.3396226 1.63278657 29.2528302"></polygon>
                            <polygon points="13.4882369 27.890566 57.3605022 67.9698113 58.1414001 67.6830189 14.4111163 27.7471698"></polygon>
                            <polygon points="26.2665666 26.3849057 67.8671289 64.3132075 68.6480268 64.0981132 27.189446 26.2415094"></polygon>
                            <polygon points="39.115887 24.8792453 78.3737555 60.7283019 79.1546534 60.4415094 40.0387664 24.7358491"></polygon>
                            <polygon points="51.8942167 23.3735849 88.8803821 57.1433962 89.6612801 56.8566038 52.8170961 23.2301887"></polygon>
                            <polygon points="64.7435372 21.8679245 99.3870088 53.4867925 100.167907 53.2 65.6664165 21.7245283"></polygon>
                            <polygon points="77.5218669 20.3622642 109.893635 49.9018868 110.674533 49.6150943 78.4447462 20.2188679"></polygon>
                            <polygon points="90.3711873 18.8566038 120.400262 46.245283 121.18116 46.0301887 91.2940666 18.7132075"></polygon>
                            <polygon points="103.149517 17.3509434 130.906889 42.6603774 131.687787 42.3735849 104.072396 17.2075472"></polygon>
                            <polygon points="115.927847 15.845283 141.413515 39.0037736 142.194413 38.7886792 116.921717 15.7018868"></polygon>
                            <polygon points="128.777167 14.3396226 151.920142 35.4188679 152.630049 35.1320755 129.700046 14.1962264"></polygon>
                            <polygon points="141.555497 12.8339623 162.426769 31.8339623 163.136676 31.5471698 142.549367 12.690566"></polygon>
                            <polygon points="154.404817 11.3283019 172.862405 28.1773585 173.643302 27.9622642 155.327697 11.1849057"></polygon>
                            <polygon points="167.183147 9.82264151 183.369031 24.5924528 184.149929 24.3056604 168.106026 9.67924528"></polygon>
                            <polygon points="180.032467 8.31698113 193.875658 20.9358491 194.656556 20.7207547 180.955347 8.17358491"></polygon>
                            <polygon points="192.810797 6.81132075 204.382284 17.3509434 205.163182 17.0641509 193.733676 6.66792453"></polygon>
                            <polygon points="205.660117 5.30566038 214.888911 13.7660377 215.669809 13.4792453 206.582997 5.16226415"></polygon>
                            <polygon points="218.438447 3.8 225.395538 10.109434 226.176436 9.82264151 219.361327 3.65660377"></polygon>
                            <polygon points="231.287768 2.29433962 235.902164 6.5245283 236.683062 6.23773585 232.210647 2.1509434"></polygon>
                            <polygon points="247.189689 2.65283019 244.988977 0.645283019 244.066097 0.788679245 246.408791 2.86792453"></polygon>
                        </g>
                    </g>
                    <g id="Path">
                        <polygon fill="#F9F9B2" points="0 75.2830189 24.136845 31.5471698 292.481769 0"></polygon>
                        <g transform="translate(13.488237, 0.716981)" fill="#CCE5ED" opacity="0.4">
                            <polygon points="22.9300027 29.3245283 0.354953603 70.9811321 1.27783297 70.6943396 23.7818914 29.2528302"></polygon>
                            <polygon points="35.9922953 27.8188679 14.5530977 67.3245283 15.5469678 67.0377358 36.844184 27.7471698"></polygon>
                            <polygon points="49.0545879 26.2415094 28.8222325 63.6679245 29.7451119 63.3811321 49.9774673 26.1698113"></polygon>
                            <polygon points="62.1878712 24.7358491 43.0203767 60.0113208 44.0142467 59.7245283 63.0397599 24.6641509"></polygon>
                            <polygon points="75.2501638 23.2301887 57.2895115 56.2830189 58.2123909 56.0679245 76.1020524 23.0867925"></polygon>
                            <polygon points="88.3124564 21.6528302 71.4876556 52.6264151 72.4815257 52.4113208 89.164345 21.5811321"></polygon>
                            <polygon points="101.374749 20.1471698 85.7567904 48.9698113 86.6796698 48.754717 102.297628 20.0037736"></polygon>
                            <polygon points="114.508032 18.5698113 100.025925 45.3132075 100.948805 45.0981132 115.359921 18.4981132"></polygon>
                            <polygon points="127.570325 17.0641509 114.224069 41.6566038 115.146949 41.4415094 128.422213 16.9207547"></polygon>
                            <polygon points="140.632617 15.4867925 128.493204 38 129.416084 37.7849057 141.555497 15.4150943"></polygon>
                            <polygon points="153.765901 13.9811321 142.691348 34.3433962 143.614228 34.0566038 154.617789 13.8377358"></polygon>
                            <polygon points="166.828193 12.4037736 156.960483 30.6867925 157.883363 30.4 167.680082 12.3320755"></polygon>
                            <polygon points="179.890486 10.8981132 171.158627 27.0301887 172.081507 26.7433962 180.742375 10.8264151"></polygon>
                            <polygon points="192.952778 9.39245283 185.427762 23.3018868 186.350641 23.0867925 193.875658 9.2490566"></polygon>
                            <polygon points="206.086062 7.81509434 199.625906 19.645283 200.548786 19.4301887 206.93795 7.74339623"></polygon>
                            <polygon points="219.148354 6.30943396 213.895041 15.9886792 214.81792 15.7735849 220.000243 6.16603774"></polygon>
                            <polygon points="232.210647 4.73207547 228.093185 12.3320755 229.087055 12.1169811 233.062536 4.66037736"></polygon>
                            <polygon points="245.34393 3.22641509 242.36232 8.6754717 243.285199 8.46037736 246.195819 3.08301887"></polygon>
                            <polygon points="258.406223 1.6490566 256.560464 5.01886792 257.554334 4.80377358 259.258111 1.57735849"></polygon>
                            <polygon points="272.320404 0 271.468515 0.143396226 270.829599 1.36226415 271.752478 1.0754717"></polygon>
                        </g>
                    </g>
                    <g transform="translate(34.785453, 0.000000)" id="Path">
                        <polygon fill="#F9F9B2" points="0 21.509434 22.0071234 7.88679245 257.696316 0"></polygon>
                        <g transform="translate(11.358515, 0.000000)" fill="#CCE5ED" opacity="0.4">
                            <polygon points="21.3682069 7.45660377 0.354953603 20.5056604 1.34882369 20.4339623 22.362077 7.45660377"></polygon>
                            <polygon points="32.8687036 7.09811321 12.9203111 19.4301887 13.9141812 19.3584906 33.8625737 7.02641509"></polygon>
                            <polygon points="44.2982096 6.73962264 25.414678 18.4264151 26.408548 18.354717 45.2920797 6.66792453"></polygon>
                            <polygon points="55.7987064 6.30943396 37.9800355 17.3509434 38.9739056 17.2792453 56.7925764 6.30943396"></polygon>
                            <polygon points="67.2282124 5.9509434 50.4744023 16.2754717 51.4682724 16.2037736 68.2220825 5.87924528"></polygon>
                            <polygon points="78.6577184 5.59245283 63.0397599 15.2716981 64.0336299 15.2 79.7225792 5.52075472"></polygon>
                            <polygon points="90.1582151 5.16226415 75.5341267 14.1962264 76.5279968 14.1245283 91.1520852 5.16226415"></polygon>
                            <polygon points="113.088218 4.44528302 100.593851 12.1169811 101.587721 12.045283 114.082088 4.37358491"></polygon>
                            <polygon points="124.517724 4.01509434 113.159209 11.1132075 114.153079 11.0415094 125.511594 4.01509434"></polygon>
                            <polygon points="136.018221 3.65660377 125.653575 10.0377358 126.647445 9.96603774 137.012091 3.58490566"></polygon>
                            <polygon points="147.447727 3.29811321 138.218933 8.96226415 139.212803 8.89056604 148.441597 3.22641509"></polygon>
                            <polygon points="158.877233 2.86792453 150.7133 7.95849057 151.70717 7.88679245 159.871103 2.86792453"></polygon>
                            <polygon points="170.377729 2.50943396 163.278657 6.88301887 164.272527 6.81132075 171.371599 2.43773585"></polygon>
                            <polygon points="181.807235 2.1509434 175.773024 5.87924528 176.766894 5.80754717 182.801105 2.07924528"></polygon>
                            <polygon points="193.307732 1.72075472 188.338382 4.80377358 189.332252 4.73207547 194.301602 1.72075472"></polygon>
                            <polygon points="204.737238 1.36226415 200.832748 3.72830189 201.826619 3.65660377 205.731108 1.29056604"></polygon>
                            <polygon points="216.166744 1.00377358 213.398106 2.7245283 214.391976 2.65283019 217.231605 0.932075472"></polygon>
                            <polygon points="227.667241 0.573584906 225.892473 1.6490566 226.886343 1.57735849 228.661111 0.573584906"></polygon>
                            <polygon points="238.883775 0.21509434 238.315849 0.645283019 239.309719 0.573584906 239.806654 0.21509434"></polygon>
                            <polygon points="101.587721 4.80377358 88.0994842 13.1924528 89.0933543 13.1207547 102.581591 4.73207547"></polygon>
                        </g>
                    </g>
                </g>
                <g id="Group" transform="translate(87.000000, 38.000000)">
                    <path d="M134.4435,82.4954122 L106.032,113.33349 C105.609,113.759823 105.6795,114.470378 106.1025,114.825656 C106.314,115.038822 106.596,115.109877 106.8075,115.109877 C107.0895,115.109877 107.3715,114.967766 107.583,114.7546 L135.078,84.840243 C135.4305,84.3428546 135.36,83.9875772 135.1485,83.6322998 L134.4435,82.4954122 Z" id="Path" fill="#326EC0"></path>
                    <path d="M135.219,83.4901889 L83.895,3.90805139 L81.8505,4.61860619 L133.4565,84.6270766 C133.668,84.9112985 134.0205,85.1244649 134.373,85.1244649 C134.5845,85.1244649 134.796,85.0534094 134.937,84.982354 C135.36,84.698132 135.501,83.9875772 135.219,83.4901889 Z" id="Path" fill="#326EC0"></path>
                    <g transform="translate(0.000000, 31.264411)" id="Path">
                        <path d="M114.21,18.4744248 L128.3805,4.97388359 C128.3805,4.97388359 133.1745,4.90282811 135.4305,6.89238155 C138.5325,9.66354527 138.18,14.211096 138.18,14.211096 C138.18,14.211096 133.668,23.4483084 128.028,23.4483084 C127.3935,23.4483084 126.6885,23.3772529 125.9835,23.093031 C125.4195,22.8798645 124.8555,22.7377536 124.2915,22.7377536 C123.5865,22.7377536 123.234,22.7377536 122.5995,23.1640864 C121.683,23.8035858 117.6645,27.0010824 117.6645,27.0010824 L114.21,18.4744248 Z" fill="#C69C6D"></path>
                        <path d="M9.87,63.2393771 C9.87,63.2393771 20.163,58.4076045 27.1425,56.418051 C32.2185,54.9969414 48.645,52.5810551 48.645,52.5810551 L68.5965,41.3542893 L63.591,57.1996613 L40.608,64.0209874 L10.575,68.1422052 L9.87,63.2393771 Z" fill="#891E68"></path>
                        <path d="M109.4865,26.4326385 L114.21,25.5089173 C114.21,25.5089173 115.8315,40.9990119 117.453,43.6991201 C119.0745,46.3992284 126.8295,54.8548305 126.8295,54.8548305 L124.4325,57.9102161 C124.4325,57.9102161 113.646,50.1651688 111.39,46.1860619 C107.724,39.7910687 107.16,31.9039105 107.16,29.2038022 C107.16,28.6353584 109.4865,26.4326385 109.4865,26.4326385 Z" fill="#891E68"></path>
                        <path d="M117.2415,17.4796481 C117.2415,17.4796481 113.4345,13.7137076 106.5255,17.0533152 C97.008,21.6719214 93.1305,28.5643029 88.7595,32.6144653 C87.9135,33.3960756 84.6,36.2382947 81.075,36.2382947 C80.37,36.2382947 77.1975,35.52774 74.73,35.52774 C72.8265,35.52774 70.218,35.8119619 67.6095,37.2330715 C60.2775,41.2121783 47.94,59.6866031 47.94,59.6866031 C47.94,59.6866031 43.992,60.255047 35.955,64.6604867 C28.482,68.7817045 13.4655,79.5821375 13.4655,79.5821375 L10.575,83.9165218 L15.51,83.8454663 L51.183,68.4974826 C51.042,68.6395936 63.5205,62.5288223 75.576,55.7785517 C79.665,53.5047764 83.754,50.9467791 86.6445,49.454614 C97.2195,43.9122866 99.405,41.2121783 99.405,41.2121783 C99.405,41.2121783 105.8205,43.1306763 110.6145,40.9279564 C113.505,39.5779023 114.492,35.7409064 115.62,32.4012988 C117.5235,26.9300269 119.709,25.3668063 119.709,25.3668063 L120.696,24.585196 C120.7665,24.585196 118.017,22.0271988 117.2415,17.4796481 Z" fill="#CB2B99"></path>
                        <path d="M107.3715,49.7388359 C107.2305,49.3835585 107.16,49.0282811 107.16,48.5308928 C107.16,47.678227 107.301,46.6123948 107.442,45.9728955 C108.429,39.6489578 109.98,32.5434098 109.98,28.8485248 C109.98,25.7220837 107.865,24.1588632 106.1025,24.1588632 C103.2825,24.1588632 101.52,25.6510282 100.8855,27.7826926 C99.8985,31.1933557 98.7,39.5779023 98.7,44.5517859 C98.7,47.1808387 98.9115,49.3835585 99.546,51.0178346 C101.3085,55.7074962 112.4475,70.2738696 112.4475,70.2738696 L115.4085,67.7869278 L107.3715,49.7388359 Z" fill="#891E68"></path>
                        <path d="M118.3695,17.3375371 C118.3695,17.3375371 118.3695,20.8903111 121.3305,24.1588632 L119.7795,25.3668063 C119.7795,25.3668063 117.453,23.093031 116.6775,18.9007577 L118.3695,17.3375371 Z" fill="#D32F2F"></path>
                        <path d="M119.9205,9.94776719 C117.876,9.94776719 114.774,10.3030446 110.262,5.25810551 C103.776,-2.06060892 89.817,1.13688768 89.535,3.552774 C89.4645,4.12121783 90.1695,4.61860619 91.791,4.97388359 C95.457,5.68443839 96.2325,5.54232743 98.4885,8.02926923 C102.507,12.3636535 98.6295,19.0428686 106.6665,20.8192556 C118.0875,23.3772529 121.6125,15.6322056 121.6125,15.6322056 L124.221,8.73982403 C124.362,8.66876855 121.965,9.94776719 119.9205,9.94776719 Z" fill="#3C3C3B"></path>
                        <path d="M122.529,23.3772529 C119.568,19.0428686 120.837,13.7847631 120.837,13.5005412 L122.1765,13.8558186 C122.1765,13.9268741 120.978,18.9007577 123.7275,22.7377536 C123.7275,22.808809 123.657,23.0219755 123.234,23.2351419 C123.0225,23.3772529 122.5995,23.4483084 122.529,23.3772529 Z" fill="#891E68"></path>
                        <path d="M0,73.5424217 C0,70.3449251 2.82,70.771258 2.82,67.1474285 C2.82,65.6552634 3.0315,64.5183758 4.653,64.2341538 C8.319,63.523599 9.87,63.2393771 9.87,63.2393771 L10.575,68.2132607 C9.588,68.7106491 7.05,69.8475367 4.4415,73.0450333 C3.7365,73.9687546 3.1725,75.1766977 2.82,75.8872525 C2.256,77.0951957 0.705,77.4504731 0.705,77.4504731 C0.705,77.4504731 0,74.4661429 0,73.5424217 Z" fill="#3C3C3B"></path>
                        <path d="M13.4655,79.5821375 C13.4655,79.5821375 12.7605,79.8663594 9.024,81.2164135 C8.037,81.5716909 7.755,82.3533012 7.755,83.1349115 C7.755,83.5612444 7.896,84.0586327 7.9665,84.5560211 C8.883,88.1087951 5.7105,88.4640725 6.486,91.5905136 C6.6975,92.5142348 8.178,95.2143431 8.178,95.2143431 C8.178,95.2143431 9.588,94.4327328 9.7995,93.1537342 C9.9405,92.3721239 10.5045,90.4536259 11.0685,89.3877937 C13.113,85.4086868 14.523,84.4139101 15.51,83.8454663 L13.4655,79.5821375 Z" fill="#3C3C3B"></path>
                        <path d="M140.013,14.9216508 C140.436,14.211096 141,12.434709 141,10.8004329 C141,9.16615691 140.718,7.31871443 139.449,5.40021647 C138.039,3.26855208 135.8535,1.49216508 133.668,0.639499319 C132.681,0.21316644 131.412,0 130.0725,0 C128.0985,0 125.913,0.497388359 124.1505,1.70533152 C120.3435,4.33438427 119.145,7.46082539 119.145,12.292598 C121.824,9.80565623 123.657,9.73460075 125.9835,10.658322 C127.182,9.87671171 128.9445,9.59248979 131.13,10.4451555 C131.13,10.4451555 132.822,10.8004329 135.642,13.1452638 C137.4045,14.5663734 138.18,16.9822597 138.18,16.9822597 C138.18,16.9822597 139.026,16.4138159 140.013,14.9216508 Z" fill="#CB2B99"></path>
                        <path d="M119.145,12.434709 C119.145,13.3584302 119.3565,15.987483 120.7665,17.0533152 C121.683,17.76387 124.8555,12.5057645 125.2785,11.8662651 C124.7145,9.73460075 123.093,7.81610279 121.6125,7.81610279 C119.568,7.81610279 119.145,11.7241542 119.145,12.434709 Z" fill="#891E68"></path>
                        <path d="M120.978,4.76071715 C120.978,4.76071715 121.401,6.11077127 122.7405,8.24243567 C123.798,9.94776719 125.49,12.0083761 125.49,12.0083761 L128.2395,10.0188227 C128.2395,10.0188227 126.759,8.31349115 125.4195,6.11077127 C124.503,4.54755071 123.4455,2.20271988 123.4455,2.20271988 C123.4455,2.20271988 122.5995,1.91849796 121.7535,2.70010824 C120.9075,3.41066304 120.9075,4.33438427 120.978,4.76071715 Z" fill="#326EC0"></path>
                        <path d="M124.926,12.5057645 C124.926,12.5057645 124.785,12.7899864 124.785,13.4294857 C124.785,14.4242624 125.49,16.1295939 126.5475,16.6269823 C127.2525,16.9822597 128.0985,17.0533152 128.874,17.0533152 C130.566,17.0533152 132.1875,16.5559268 132.963,17.621759 C133.7385,18.7586467 132.963,19.7534234 134.091,20.4639782 C135.501,21.3876995 138.6735,18.7586467 138.2505,16.0585385 C137.8275,13.7847631 134.937,11.5109877 132.6105,10.5872665 C131.694,10.2319891 130.566,10.0188227 129.438,10.0188227 C127.3935,9.94776719 125.5605,10.5872665 124.926,12.5057645 Z" fill="#326EC0"></path>
                        <path d="M114.2805,72.9029224 C113.8575,72.7608114 112.4475,70.2738696 112.4475,70.2738696 L115.4085,67.7869278 C115.4085,67.7869278 115.6905,68.4264271 116.043,68.7106491 C116.325,68.994871 117.2415,68.994871 117.594,69.1369819 C119.004,69.6343703 119.85,70.4870361 119.85,71.4818128 C119.85,71.6239237 119.85,72.547645 117.8055,74.6082539 C116.8185,75.6030306 115.6905,75.3898642 115.62,74.8924758 C115.8315,73.9687546 115.479,73.2581998 114.2805,72.9029224 Z" fill="#C69C6D"></path>
                        <path d="M126.8295,59.4734367 C126.336,59.4023812 124.4325,57.9102161 124.4325,57.9102161 L126.8295,54.8548305 C126.8295,54.8548305 127.3935,55.3522188 127.8165,55.5653853 C128.169,55.7785517 129.438,55.9917182 129.7905,55.9917182 C131.271,55.9917182 132.822,57.7681052 132.1875,59.0471038 C131.412,60.5392689 130.3545,61.6761566 129.3675,61.747212 C129.156,61.747212 128.2395,61.5340456 128.2395,61.1077127 C128.2395,61.1077127 128.451,60.6813798 128.2395,60.3261024 C127.887,59.8287141 127.605,59.5444922 126.8295,59.4734367 Z" fill="#C69C6D"></path>
                    </g>
                    <path d="M107.7945,113.617712 L59.22,0 L57.1755,0.568443839 L105.8205,114.541434 C105.9615,114.967766 106.3845,115.180933 106.8075,115.180933 C106.9485,115.180933 107.0895,115.180933 107.2305,115.109877 C107.7945,114.7546 108.006,114.115101 107.7945,113.617712 Z" id="Path" fill="#326EC0"></path>
                </g>
            </g>
        </g>
    </g>
</svg>