<?xml version="1.0" encoding="UTF-8"?>
<svg width="20px" height="20px" viewBox="0 0 20 20" version="1.1" xmlns="http://www.w3.org/2000/svg" xmlns:xlink="http://www.w3.org/1999/xlink">
    <!-- Generator: sketchtool 55.2 (78181) - https://sketchapp.com -->
    <title>2D0B5445-F012-445A-AEC4-31DB63A8F372</title>
    <desc>Created with sketchtool.</desc>
    <g id="Emails" stroke="none" stroke-width="1" fill="none" fill-rule="evenodd">
        <g id="Email" transform="translate(-612.000000, -640.000000)" fill="#CB2B99" fill-rule="nonzero">
            <g id="Group-2" transform="translate(430.000000, 640.000000)">
                <g id="icon/social/google/gray" transform="translate(182.000000, 0.000000)">
                    <path d="M10,0 C4.5,0 0,4.5 0,10 C0,15.5 4.5,20 10,20 C15.5,20 20,15.5 20,10 C20,4.5 15.5,0 10,0 Z M9.3125,5 L12.3125,5 L11.40625,5.5 L10.5,5.5 C10.800781,5.800781 11.5,6.398438 11.5,7.5 C11.5,8.601563 10.914063,9.09375 10.3125,9.59375 C10.113281,9.792969 9.90625,10.011719 9.90625,10.3125 C9.90625,10.613281 10.113281,10.804688 10.3125,10.90625 L10.8125,11.3125 C11.414063,11.8125 12,12.3125 12,13.3125 C12,14.613281 10.695313,16 8.09375,16 C5.992188,16 5,15.007813 5,13.90625 C5,13.40625 5.292969,12.59375 6.09375,12.09375 C6.992188,11.59375 8.207031,11.507813 8.90625,11.40625 C8.707031,11.105469 8.5,10.90625 8.5,10.40625 C8.5,10.207031 8.59375,10.011719 8.59375,9.8125 L8.09375,9.8125 C6.492188,9.8125 5.6875,8.699219 5.6875,7.5 C5.6875,6.800781 5.992188,6.09375 6.59375,5.59375 C7.492188,5.09375 8.511719,5 9.3125,5 Z M8.40625,5.40625 C8.007813,5.40625 7.605469,5.605469 7.40625,5.90625 C7.105469,6.304688 7,6.699219 7,7 C7,8 7.613281,9.59375 8.8125,9.59375 C9.210938,9.59375 9.613281,9.386719 9.8125,9.1875 C10.210938,8.886719 10.1875,8.394531 10.1875,8.09375 C10.1875,7.09375 9.605469,5.40625 8.40625,5.40625 Z M14,8 L15,8 L15,10 L17,10 L17,11 L15,11 L15,13 L14,13 L14,11 L12,11 L12,10 L14,10 L14,8 Z M9.09375,11.90625 C8.992188,11.90625 8.195313,11.894531 7.59375,12.09375 C7.292969,12.195313 6.3125,12.59375 6.3125,13.59375 C6.3125,14.59375 7.304688,15.40625 8.90625,15.40625 C10.304688,15.40625 11,14.710938 11,13.8125 C11,13.113281 10.507813,12.707031 9.40625,11.90625 L9.09375,11.90625 Z" id="Shape"></path>
                </g>
            </g>
        </g>
    </g>
</svg>