<?xml version="1.0" encoding="UTF-8"?>
<svg width="18px" height="18px" viewBox="0 0 18 18" version="1.1" xmlns="http://www.w3.org/2000/svg" xmlns:xlink="http://www.w3.org/1999/xlink">
    <!-- Generator: sketchtool 55.2 (78181) - https://sketchapp.com -->
    <title>993D1BD6-EA0E-406B-AEA1-53F7665029B8</title>
    <desc>Created with sketchtool.</desc>
    <g id="Emails" stroke="none" stroke-width="1" fill="none" fill-rule="evenodd">
        <g id="Email" transform="translate(-675.000000, -640.000000)" fill="#CB2B99" fill-rule="nonzero">
            <g id="Group-2" transform="translate(430.000000, 640.000000)">
                <g id="icon/social/instagram/gray" transform="translate(245.000000, 0.000000)">
                    <path d="M5,0 C2.238281,0 0,2.238281 0,5 L0,13 C0,15.761719 2.238281,18 5,18 L13,18 C15.761719,18 18,15.761719 18,13 L18,5 C18,2.238281 15.761719,0 13,0 L5,0 Z M15,2 C15.550781,2 16,2.449219 16,3 C16,3.550781 15.550781,4 15,4 C14.449219,4 14,3.550781 14,3 C14,2.449219 14.449219,2 15,2 Z M9,4 C11.761719,4 14,6.238281 14,9 C14,11.761719 11.761719,14 9,14 C6.238281,14 4,11.761719 4,9 C4,6.238281 6.238281,4 9,4 Z M9,6 C7.34375,6 6,7.34375 6,9 C6,10.65625 7.34375,12 9,12 C10.65625,12 12,10.65625 12,9 C12,7.34375 10.65625,6 9,6 Z" id="Shape"></path>
                </g>
            </g>
        </g>
    </g>
</svg>