<?xml version="1.0" encoding="UTF-8"?>
<svg width="111px" height="44px" viewBox="0 0 111 44" version="1.1" xmlns="http://www.w3.org/2000/svg" xmlns:xlink="http://www.w3.org/1999/xlink">
    <!-- Generator: sketchtool 55.2 (78181) - https://sketchapp.com -->
    <title>8DDF4401-EA43-4091-A6AE-EC3A2002F414</title>
    <desc>Created with sketchtool.</desc>
    <g id="Emails" stroke="none" stroke-width="1" fill="none" fill-rule="evenodd">
        <g id="Email" transform="translate(-822.000000, -125.000000)">
            <g id="Group" transform="translate(477.000000, 95.000000)">
                <g id="logo/completo" transform="translate(345.000000, 30.000000)">
                    <g id="logo-redentradas-completo">
                        <path d="M89.2673684,33.0922391 L86.274945,33.0922391 L86.274945,31.7244623 L86.231681,31.7244623 C85.472163,32.7319357 84.2769976,33.3323741 83.0013058,33.3473684 C79.8790905,33.3473684 77.8168421,31.1291605 77.8168421,27.996739 C77.8168421,25.1194469 79.6411388,22.4760234 82.6335622,22.4760234 C83.9149912,22.3603651 85.1728497,22.8686406 86.0009399,23.8367133 L86.0009399,23.8367133 L86.0009399,18.2947368 L89.2529471,18.2947368 L89.2673684,33.0922391 Z M83.6718971,25.2966201 C82.9578689,25.2551024 82.260678,25.5203321 81.7611659,26.0235122 C81.2616538,26.5266924 81.0090401,27.218242 81.0688493,27.9187828 C81.0688493,29.3317373 82.2342735,30.4771632 83.6718971,30.4771632 C85.1095208,30.4771632 86.274945,29.3317373 86.274945,27.9187828 C86.3347541,27.218242 86.0821404,26.5266924 85.5826283,26.0235122 C85.0831163,25.5203321 84.3859254,25.2551024 83.6718971,25.2966201 L83.6718971,25.2966201 Z" id="Shape" fill="#3C3C3B" fill-rule="nonzero"></path>
                        <path d="M97.4711156,31.7810182 L97.4711156,31.7810182 C96.7134205,32.8331439 95.4600302,33.4226815 94.1574269,33.3396262 C92.1964103,33.3396262 90.4357895,32.2344314 90.4357895,30.1444798 C90.4357895,26.5667661 94.8230274,26.5030048 97.5140576,26.5030048 C97.5017947,25.9806977 97.2734512,25.4862771 96.8824301,25.135374 C96.4914091,24.784471 95.9720028,24.6078596 95.445686,24.6468444 C94.4294557,24.654709 93.468433,25.1057338 92.8190688,25.8795616 L91.094233,24.1296699 C92.3651976,23.0219875 94.0103761,22.4277247 95.7033378,22.4647932 C99.4679172,22.4647932 100.484211,24.3634611 100.484211,27.8136524 L100.484211,33.0774967 L97.4711156,33.0774967 L97.4711156,31.7810182 Z M96.6766892,28.5433644 C95.6890238,28.5433644 93.4918264,28.6283793 93.4918264,30.0382111 C93.4918264,30.8033459 94.3077238,31.1646596 95.0234233,31.1646596 C96.2902114,31.1646596 97.4782726,30.5057935 97.4782726,29.2234842 L97.4782726,28.515026 L96.6766892,28.5433644 Z" id="Shape" fill="#3C3C3B" fill-rule="nonzero"></path>
                        <path d="M107.922409,25.7653407 C107.474517,25.196418 106.783074,24.8726006 106.058178,24.892281 C105.524524,24.892281 104.88414,25.1265165 104.88414,25.7440466 C104.88414,27.2843226 110.298947,25.9782821 110.298947,29.9247958 C110.298947,32.5723671 107.730294,33.3389561 105.503178,33.3389561 C104.007561,33.4202213 102.540106,32.9101586 101.418947,31.9193468 L103.368563,29.7899329 C103.900058,30.5073535 104.744154,30.9270534 105.63837,30.9185223 C106.349909,30.9185223 107.061447,30.7268751 107.061447,30.1732274 C107.061447,28.5051866 101.64664,29.9176978 101.64664,25.971184 C101.64664,23.5365542 103.831063,22.4718472 106.015486,22.4718472 C107.431544,22.3903673 108.820294,22.884592 109.864909,23.8417701 L107.922409,25.7653407 Z" id="Path" fill="#3C3C3B" fill-rule="nonzero"></path>
                        <path d="M12.9361128,33.3473684 C9.76287729,33.3473684 7.24421053,31.1963387 7.24421053,27.9052632 C7.24421053,24.6141876 9.78422192,22.4631579 12.9361128,22.4631579 C15.9030169,22.4631579 17.76,24.6141876 17.76,27.9052632 L17.76,28.909077 L10.4032163,28.909077 C10.6617754,30.1030341 11.7237864,30.9448067 12.9361128,30.9167048 C12.9361128,32.0710908 12.9361128,32.5801678 12.9361128,33.3473684 L12.9361128,33.3473684 Z M14.5867645,26.736537 C14.6006166,26.2113356 14.3996774,25.7034782 14.031034,25.3319735 C13.6623906,24.9604689 13.1584444,24.7579701 12.6372879,24.7719298 C11.4864256,24.7096306 10.4943275,25.5792963 10.3961014,26.736537 L14.5867645,26.736537 Z" id="Shape" fill="#CB2B99" fill-rule="nonzero"></path>
                        <path d="M29.9115789,33.0927186 L26.9770646,33.0927186 L26.9770646,31.7487337 L26.9342249,31.7487337 C26.1896548,32.7416328 25.0196708,33.3329643 23.7712325,33.3473684 C20.7153392,33.3473684 18.6947368,31.1616245 18.6947368,28.0633854 C18.6947368,25.2339434 20.4797213,22.6096359 23.4070957,22.6096359 C24.6527662,22.5048315 25.8722019,23.0060111 26.6771872,23.9536209 L26.7200268,23.9536209 L26.7200268,18.2947368 L29.904439,18.2947368 L29.9115789,33.0927186 Z M24.4281068,25.3895627 C23.7286414,25.3480486 23.0454995,25.6097779 22.5562217,26.1067302 C22.066944,26.6036825 21.8198472,27.2867832 21.8791491,27.9785022 C21.8198472,28.6702212 22.066944,29.3533218 22.5562217,29.8502741 C23.0454995,30.3472265 23.7286414,30.6089558 24.4281068,30.5674416 C25.1275722,30.6089558 25.8107141,30.3472265 26.2999919,29.8502741 C26.7892696,29.3533218 27.0363664,28.6702212 26.9770646,27.9785022 C27.0363664,27.2867832 26.7892696,26.6036825 26.2999919,26.1067302 C25.8107141,25.6097779 25.1275722,25.3480486 24.4281068,25.3895627 L24.4281068,25.3895627 Z" id="Shape" fill="#CB2B99" fill-rule="nonzero"></path>
                        <path d="M42.9978947,22.7142985 L46.090266,22.7142985 L46.090266,24.1362385 L46.1331164,24.1362385 C46.7621135,23.0618471 47.9343349,22.4196073 49.1826372,22.465459 C52.4464101,22.465459 53.0463158,24.598369 53.0463158,27.3853713 L53.0463158,33.1157895 L49.8396768,33.1157895 L49.8396768,28.0181346 C49.8396768,26.823705 49.8396768,25.2809002 48.1613691,25.2809002 C46.4830614,25.2809002 46.2259589,26.5819752 46.2259589,27.9328182 L46.2259589,33.1086798 L42.9978947,33.1086798 L42.9978947,22.7142985 Z" id="Path" fill="#3C3C3B" fill-rule="nonzero"></path>
                        <path d="M60.2833867,25.3010925 L57.4275515,25.3010925 L57.4275515,28.7462077 C57.4275515,29.8497764 57.5560641,30.6633047 58.9554233,30.6633047 C59.4133392,30.6952013 59.8705146,30.5918024 60.2691076,30.36619 L60.2691076,33.0260737 C59.5410126,33.2593925 58.7778824,33.3670701 58.0129977,33.3444108 C55.8711213,33.3444108 54.2147368,32.4742893 54.2147368,30.2176327 L54.2147368,19.6842105 L57.4346911,19.6842105 L57.4346911,22.7473212 L60.2905263,22.7473212 L60.2833867,25.3010925 Z" id="Path" fill="#3C3C3B" fill-rule="nonzero"></path>
                        <path d="M2.26578947,38.9514347 L1.34921053,38.9514347 L1.05078947,41.2383669 C1.00815789,41.5485817 1.15736842,41.7361535 1.43447368,41.7361535 C1.60427084,41.7285672 1.77090292,41.6868829 1.92473684,41.6135104 L1.92473684,42.0247254 C1.74478104,42.0940707 1.55554103,42.1354182 1.36342105,42.1473684 C0.759473684,42.1473684 0.581842105,41.7433678 0.652894737,41.2383669 L0.944210526,38.9442204 L0.233684211,38.9442204 L0.283421053,38.5330054 L0.993947368,38.5330054 L1.12184211,37.5157895 L1.54105263,37.5157895 L1.41315789,38.5402197 L2.33684211,38.5402197 L2.26578947,38.9514347 Z" id="Path" fill="#858686" fill-rule="nonzero"></path>
                        <path d="M3.06495623,36.3578947 L3.51302645,36.3578947 L3.14896939,39.2454128 L3.14896939,39.2454128 C3.39247729,38.8101309 3.83797034,38.5367109 4.32515374,38.5235333 C5.31930956,38.5235333 5.44532931,39.2454128 5.34731395,40.046699 L5.08127225,42.1473684 L4.64720422,42.1473684 L4.91324591,40.0539178 C4.98325689,39.483633 4.91324591,38.9277858 4.25514277,38.9277858 C3.59703962,38.9277858 3.09296061,39.3970075 2.97394196,40.3715448 L2.74990685,42.1329308 L2.33684211,42.1329308 L3.06495623,36.3578947 Z" id="Path" fill="#858686" fill-rule="nonzero"></path>
                        <path d="M9.06398841,41.4256517 C8.70496645,41.8981865 8.1366546,42.1671105 7.54119031,42.1462367 C6.53324299,42.1462367 5.97488369,41.3752108 6.0909064,40.2871274 C6.16238039,39.2882431 6.97008695,38.4979605 7.97627548,38.4424298 C8.39207495,38.4333209 8.78861122,38.616368 9.04980475,38.9379869 C9.31099827,39.2596059 9.40730647,39.6834196 9.31053667,40.0853636 L9.26702816,40.402421 L6.4969859,40.402421 C6.42982101,40.7248787 6.51122099,41.0602899 6.71891311,41.3168791 C6.92660523,41.5734682 7.23884459,41.7243711 7.57019599,41.7282974 C8.04367139,41.7164625 8.48405622,41.4843119 8.75942879,41.1013885 L9.06398841,41.4256517 Z M8.91896002,40.0277168 C8.96573775,39.7441494 8.88491632,39.4544687 8.69787947,39.2353186 C8.51084262,39.0161685 8.2364388,38.8896336 7.9472698,38.8891925 C7.29433102,38.9378992 6.74850073,39.4015639 6.59850577,40.0349227 L8.91896002,40.0277168 Z" id="Shape" fill="#858686" fill-rule="nonzero"></path>
                        <path d="M12.7673684,38.9514347 L11.8436842,38.9514347 L11.5665789,41.2383669 C11.5239474,41.5485817 11.6731579,41.7361535 11.9502632,41.7361535 C12.1200603,41.7285672 12.2866924,41.6868829 12.4405263,41.6135104 L12.4405263,42.0247254 C12.2605705,42.0940707 12.0713305,42.1354182 11.8792105,42.1473684 C11.2752632,42.1473684 11.0976316,41.7433678 11.1686842,41.2383669 L11.46,38.9442204 L10.7494737,38.9442204 L10.7992105,38.5330054 L11.5097368,38.5330054 L11.6376316,37.5157895 L12.0568421,37.5157895 L11.9289474,38.5330054 L12.8526316,38.5330054 L12.7673684,38.9514347 Z" id="Path" fill="#3C3C3B" fill-rule="nonzero"></path>
                        <path d="M13.3091238,38.5030137 L13.7299526,38.5030137 L13.2734604,41.9157895 L12.8526316,41.9157895 L13.3091238,38.5030137 Z M13.744218,36.8210526 C13.8283943,36.8235004 13.9071655,36.86221 13.959437,36.9268154 C14.0117086,36.9914207 14.0321401,37.0753213 14.0152603,37.156049 C13.9949681,37.3374803 13.8447236,37.478609 13.6586257,37.4910454 C13.5734911,37.4911579 13.4929914,37.4531189 13.4401481,37.3878069 C13.3873047,37.3224948 13.3679369,37.2371019 13.3875834,37.156049 C13.4078756,36.9746177 13.5581202,36.833489 13.744218,36.8210526 L13.744218,36.8210526 Z" id="Shape" fill="#3C3C3B" fill-rule="nonzero"></path>
                        <path d="M16.9652585,41.5343858 C16.6576414,41.9153431 16.2050956,42.1389749 15.7254201,42.1470693 C15.276659,42.1563584 14.8493145,41.9488442 14.5694193,41.5857271 C14.2895242,41.22261 14.1890085,40.7453136 14.2975163,40.2946028 C14.3790467,39.2669471 15.1960166,38.468139 16.1921009,38.4421053 C16.6358474,38.4390299 17.0505926,38.6699253 17.2926316,39.0548197 L16.9304316,39.3287253 C16.7603776,39.0460748 16.4649447,38.8702153 16.1433432,38.8602026 C15.379643,38.8914266 14.7612012,39.512773 14.708474,40.3018108 C14.6196195,40.6463344 14.690789,41.0140278 14.9010142,41.2965589 C15.1112393,41.5790899 15.4365656,41.744265 15.7811432,41.743419 C16.139961,41.7152071 16.4697669,41.5288072 16.6866431,41.2316481 L16.9652585,41.5343858 Z" id="Path" fill="#3C3C3B" fill-rule="nonzero"></path>
                        <polygon id="Path" fill="#3C3C3B" fill-rule="nonzero" points="18.0222876 36.3578947 18.4362271 36.3578947 17.9451124 40.0654766 19.720141 38.5281865 20.3305263 38.5281865 18.4853385 40.0793887 20.0779531 41.9157895 19.44652 41.9157895 17.9380965 40.1211251 17.706571 41.9157895 17.2926316 41.9157895"></polygon>
                        <path d="M23.2904525,41.425856 C22.9348274,41.898257 22.3718927,42.167105 21.7820623,42.146237 C20.7836517,42.146237 20.2305752,41.3754293 20.3455002,40.2876539 C20.416298,39.2890523 21.2163624,38.4989933 22.213031,38.4434784 C22.6367196,38.4241951 23.0441345,38.6089112 23.3096021,38.9406481 C23.5750698,39.272385 23.6666957,39.7112864 23.5562165,40.1219663 L23.5131197,40.4389339 L20.7764688,40.4389339 C20.7099394,40.7613004 20.7905693,41.0966166 20.9962963,41.3531332 C21.2020234,41.6096497 21.5113085,41.7605098 21.8395248,41.7644351 C22.3085204,41.7526035 22.7447386,41.5205186 23.0175057,41.1377036 L23.2904525,41.425856 Z M23.1467963,40.0283167 C23.1962031,39.7399559 23.1145186,39.4445402 22.9240887,39.2228842 C22.7336588,39.0012281 22.4544163,38.8765331 22.1627513,38.8829109 C21.5159903,38.9316038 20.9753243,39.3951372 20.8267485,40.0283167 L23.1467963,40.0283167 Z" id="Shape" fill="#3C3C3B" fill-rule="nonzero"></path>
                        <path d="M26.1015789,38.9514347 L25.1778947,38.9514347 L24.8865789,41.2383669 C24.8439474,41.5485817 24.9931579,41.7361535 25.2702632,41.7361535 C25.4400603,41.7285672 25.6066924,41.6868829 25.7605263,41.6135104 L25.7605263,42.0247254 C25.5805705,42.0940707 25.3913305,42.1354182 25.1992105,42.1473684 C24.5952632,42.1473684 24.4176316,41.7433678 24.4886842,41.2383669 L24.78,38.9442204 L24.0694737,38.9442204 L24.1192105,38.5330054 L24.8297368,38.5330054 L24.9576316,37.5157895 L25.3768421,37.5157895 L25.2489474,38.5330054 L26.1726316,38.5330054 L26.1015789,38.9514347 Z" id="Path" fill="#3C3C3B" fill-rule="nonzero"></path>
                        <path d="M26.6247511,38.5030137 L27.0481647,38.5030137 L26.5888686,41.9157895 L26.1726316,41.9157895 L26.6247511,38.5030137 Z M27.0625177,36.8210526 C27.147211,36.8235004 27.226466,36.86221 27.2790586,36.9268154 C27.3316512,36.9914207 27.3522082,37.0753213 27.3352247,37.156049 C27.3148079,37.3374803 27.1636405,37.478609 26.9763997,37.4910454 C26.8907422,37.4911579 26.809748,37.4531189 26.7565801,37.3878069 C26.7034122,37.3224948 26.6839254,37.2371019 26.7036926,37.156049 C26.7241094,36.9746177 26.8752768,36.833489 27.0625177,36.8210526 L27.0625177,36.8210526 Z" id="Shape" fill="#3C3C3B" fill-rule="nonzero"></path>
                        <path d="M27.9193791,39.4938981 C27.9193791,39.2447893 27.9897143,38.7188928 28.0108148,38.5459006 L28.4257923,38.5459006 C28.4257923,38.7950094 28.3695242,39.071797 28.3765577,39.1340742 L28.3765577,39.1340742 C28.6211931,38.7168279 29.068749,38.4547369 29.5581884,38.4421053 C30.5569476,38.4421053 30.6835509,39.1340742 30.5850817,39.9021598 L30.3178081,41.9157895 L29.9028306,41.9157895 L30.1630707,39.9229189 C30.2334059,39.3762634 30.1630707,38.8365276 29.5019202,38.8365276 C28.8407697,38.8365276 28.3343566,39.2932271 28.2147868,40.2204655 L27.9897143,41.9088698 L27.5747368,41.9088698 L27.9193791,39.4938981 Z" id="Path" fill="#3C3C3B" fill-rule="nonzero"></path>
                        <path d="M34.613627,41.7327827 C34.3833295,43.4590802 33.2678261,43.7645567 32.6057208,43.7645567 C32.0068829,43.8042873 31.4297968,43.5355828 31.08,43.0541462 L31.4542334,42.7202533 C31.6954708,43.1468678 32.1618865,43.4005059 32.6560984,43.373831 C33.5192501,43.3429789 34.1980889,42.6349533 34.1818192,41.7825115 L34.2465904,41.2994324 L34.2465904,41.2994324 C33.9514017,41.7378738 33.4556521,42.0038328 32.9223799,42.0098428 C32.4674405,42.0107223 32.0356085,41.8120845 31.7436797,41.4676541 C31.4517509,41.1232237 31.3298887,40.6685888 31.4110526,40.2267125 C31.5493486,39.2364621 32.385611,38.4857432 33.3973684,38.4435822 C33.8940253,38.4190262 34.3535805,38.7025489 34.5488558,39.1539927 L34.5488558,39.1539927 L34.6280206,38.5714561 L35.0526316,38.5714561 L34.613627,41.7327827 Z M33.2966133,38.8058916 C32.5317639,38.8523334 31.9103865,39.432795 31.82127,40.1840879 C31.7503585,40.5181256 31.834271,40.8659707 32.0500871,41.1326098 C32.2659031,41.399249 32.5910717,41.5568206 32.9367735,41.5622842 C33.7016228,41.5158424 34.3230002,40.9353808 34.4121167,40.1840879 C34.4830282,39.8500502 34.3991157,39.5022051 34.1832996,39.235566 C33.9674836,38.9689268 33.6423151,38.8113552 33.2966133,38.8058916 L33.2966133,38.8058916 Z" id="Shape" fill="#3C3C3B" fill-rule="nonzero"></path>
                        <path d="M38.9130574,41.5344089 C38.6075417,41.9153518 38.1580875,42.1389752 37.6816889,42.1470693 C37.2359935,42.1563581 36.8115684,41.9488517 36.5335854,41.5857483 C36.2556024,41.2226448 36.1557733,40.7453664 36.2635399,40.2946726 C36.3445133,39.2670556 37.155902,38.4682776 38.1451815,38.4422758 C38.5959448,38.4348175 39.0179239,38.6724015 39.2589474,39.0693518 L38.8992218,39.343247 C38.7303295,39.0606072 38.4369148,38.8847543 38.1175103,38.874742 C37.3590274,38.9059648 36.7448105,39.5272878 36.6924435,40.3162959 C36.6041959,40.6608065 36.6748793,41.0284861 36.8836683,41.3110065 C37.0924573,41.5935269 37.4155611,41.7586957 37.7577847,41.7578498 C38.108988,41.7201648 38.4283278,41.5289132 38.6363454,41.2316826 L38.9130574,41.5344089 Z" id="Path" fill="#858686" fill-rule="nonzero"></path>
                        <path d="M41.2608567,38.4424043 C41.7195868,38.4331174 42.1564246,38.6405832 42.4425375,39.0036157 C42.7286504,39.3666482 42.831399,39.8438333 42.7204807,40.294439 C42.6371392,41.3218552 41.8020207,42.120477 40.7838088,42.1464738 C40.3213745,42.1626731 39.8782665,41.9581346 39.5871696,41.5941055 C39.2960728,41.2300763 39.1907815,40.748818 39.3028245,40.294439 C39.386166,39.2670229 40.2212845,38.468401 41.2394963,38.4424043 M40.8122893,41.7357144 C41.5929547,41.7044945 42.225135,41.0832929 42.2790334,40.294439 C42.3729697,39.9497269 42.3014489,39.5803748 42.0859007,39.2970513 C41.8703525,39.0137279 41.5358187,38.8493488 41.1825354,38.8531669 C40.40187,38.8843836 39.7696897,39.5055852 39.7157912,40.294439 C39.6249628,40.6388823 39.6977133,41.00649 39.9126086,41.2889552 C40.1275038,41.5714204 40.4600571,41.7365569 40.8122893,41.7357144" id="Shape" fill="#858686" fill-rule="nonzero"></path>
                        <path d="M43.5734057,39.492692 C43.5734057,39.2441692 43.6446196,38.7195099 43.6659838,38.5469246 L44.0861458,38.5469246 C44.0861458,38.7954474 44.0291747,39.0715839 44.0362961,39.1337146 L44.0362961,39.1337146 C44.283988,38.7174498 44.7371355,38.4559753 45.2326897,38.4433734 C45.6801659,38.4192324 46.0671777,38.742546 46.1086208,39.175135 C46.3323733,38.7313406 46.7954762,38.4480885 47.3050145,38.4433734 C48.3162519,38.4433734 48.444437,39.1337146 48.3447375,39.8999933 L48.0741247,41.9088861 L47.6539626,41.9088861 L47.9245754,39.9345103 C47.9957894,39.3891408 47.9245754,38.8506747 47.2551647,38.8506747 C46.6204092,38.8936394 46.125295,39.4005964 46.1157422,40.0173513 L45.8593721,41.9157895 L45.4392101,41.9157895 L45.7098229,39.8861864 C45.7952796,39.2648794 45.6314876,38.8506747 45.1757186,38.8506747 C44.5490362,38.8506747 43.9935678,39.3062999 43.8725041,40.231357 L43.651741,41.9157895 L43.2315789,41.9157895 L43.5734057,39.492692 Z" id="Path" fill="#858686" fill-rule="nonzero"></path>
                        <path d="M49.2875764,38.54303 L49.7151761,38.54303 L49.6354542,39.1611643 L49.6354542,39.1611643 C49.9606803,38.7079423 50.4878061,38.4398535 51.0487075,38.4424035 C51.5156416,38.4331408 51.9602918,38.6400667 52.2515215,39.0021545 C52.5427512,39.3642423 52.6473374,39.8401856 52.5344355,40.2896188 C52.4496035,41.3143613 51.5995497,42.110905 50.5631282,42.136834 C50.04599,42.1644097 49.5628563,41.8808924 49.3383086,41.4180732 L49.3383086,41.4180732 L49.0266681,43.7684211 L48.6063158,43.7684211 L49.2875764,38.54303 Z M50.6283553,41.7343298 C51.4229821,41.7031925 52.0664682,41.0836074 52.1213306,40.2968064 C52.2169468,39.9529912 52.144147,39.5846003 51.9247439,39.3020142 C51.7053408,39.019428 51.3648243,38.8554767 51.0052228,38.8592848 C50.1983841,38.8924902 49.5351287,39.5015445 49.4397729,40.2968064 C49.3679828,40.6500008 49.4599662,41.0164968 49.6903267,41.2951044 C49.9206871,41.573712 50.2650569,41.7349601 50.6283553,41.7343298 L50.6283553,41.7343298 Z" id="Shape" fill="#858686" fill-rule="nonzero"></path>
                        <path d="M55.7631516,40.5719826 C55.6903192,41.0620678 55.6480742,41.5564388 55.6366757,42.0520668 L55.2502214,42.0520668 C55.2358973,41.862227 55.2358973,41.6715327 55.2502214,41.4816929 L55.2502214,41.4816929 C54.999482,41.9137439 54.537743,42.1690055 54.0487,42.1459258 C53.5006376,42.1459258 52.9596017,41.849909 53.0579718,41.099037 C53.1914742,40.0232684 54.350837,39.9149696 54.9761902,39.9149696 L55.4610146,39.9149696 L55.4610146,39.7055918 C55.5383055,39.0918983 55.179957,38.8536409 54.6740532,38.8536409 C54.2967224,38.8547656 53.9324596,38.9957665 53.6481929,39.2507366 L53.4444261,38.94028 C53.8015142,38.6267577 54.2536199,38.4506351 54.7232383,38.4421053 C55.4961468,38.4421053 55.9458391,38.8247612 55.833416,39.7200316 L55.7631516,40.5719826 Z M54.9691638,40.2831856 C54.2665197,40.2831856 53.5638756,40.4709036 53.4865847,41.0773772 C53.466035,41.2572763 53.5267634,41.4369429 53.6514122,41.565024 C53.7760609,41.6931052 53.9509127,41.7555057 54.1259909,41.7343902 C54.4549002,41.7521166 54.7766026,41.6311401 55.0166771,41.3994467 C55.2567516,41.1677534 55.394399,40.8454163 55.3977767,40.5070033 L55.3977767,40.2687458 L54.9691638,40.2831856 Z" id="Shape" fill="#858686" fill-rule="nonzero"></path>
                        <path d="M56.8758715,39.4938981 C56.8758715,39.2447893 56.9463699,38.7188928 56.9675194,38.5459006 L57.3975595,38.5459006 C57.3975595,38.7950094 57.3411608,39.071797 57.3482107,39.1340742 L57.3482107,39.1340742 C57.5934138,38.7168279 58.0420084,38.4547369 58.5325835,38.4421053 C59.5336605,38.4421053 59.6605576,39.1340742 59.5618599,39.9021598 L59.293966,41.9157895 L58.8780256,41.9157895 L59.1388696,39.9229189 C59.209368,39.3762634 59.1388696,38.8365276 58.4761848,38.8365276 C57.8135,38.8365276 57.3059116,39.2932271 57.1860644,40.2204655 L56.9604696,41.9088698 L56.5515789,41.9088698 L56.8758715,39.4938981 Z" id="Path" fill="#858686" fill-rule="nonzero"></path>
                        <path d="M60.7715074,43.0505887 C60.6157134,43.4686429 60.2199221,43.7522179 59.7696147,43.7684211 C59.6288827,43.7644563 59.489482,43.7402755 59.3557895,43.6966378 L59.4574308,43.2731168 C59.5756792,43.3203566 59.7005491,43.3494068 59.8276955,43.3592566 C60.1398794,43.3592566 60.3213817,43.0434104 60.4520634,42.7778125 L60.8586285,41.9666619 L59.9801574,38.4421053 L60.4593235,38.4421053 L61.1853327,41.3923961 L62.637351,38.4421053 L63.0947368,38.4421053 L60.7715074,43.0505887 Z" id="Path" fill="#858686" fill-rule="nonzero"></path>
                        <path d="M41.345662,31.2966021 C40.2783753,32.6028117 38.6845971,33.3558482 37.0055865,33.3472964 C33.832351,33.3472964 31.3136842,31.196222 31.3136842,27.9051905 C31.3136842,24.6141589 33.8536956,22.4631579 37.0055865,22.4631579 C39.9653757,22.4631579 41.8294737,24.6141589 41.8294737,27.9051905 L41.8294737,28.908991 L34.4798049,28.908991 C34.6677596,30.085683 35.6880069,30.9424764 36.8704038,30.9165919 C37.7865262,30.910503 38.6376129,30.4385089 39.132935,29.6618413 L41.345662,31.2966021 Z M38.6562382,26.7364799 C38.6700903,26.2112856 38.4691511,25.7034349 38.1005077,25.3319352 C37.7318642,24.9604356 37.2279181,24.7579395 36.7067616,24.771899 C35.5638131,24.7173679 34.5815052,25.5807795 34.4798049,26.7293099 L38.6562382,26.7364799 Z" id="Shape" fill="#3C3C3B" fill-rule="nonzero"></path>
                        <path d="M69.1705263,24.6406497 L69.1705263,22.4631579 C66.67547,22.4631579 65.533418,23.3740041 64.8059963,24.6691137 L64.8059963,22.7122174 L61.6926316,22.7122174 L61.6926316,33.1157895 L64.9733033,33.1157895 L64.9733033,28.7679218 C64.9280931,27.6640777 65.3550157,26.5917089 66.1514742,25.8085241 C66.9479327,25.0253394 68.041918,24.6021478 69.1705263,24.6406497 L69.1705263,24.6406497 Z" id="Path" fill="#3C3C3B" fill-rule="nonzero"></path>
                        <path d="M7.47789474,24.6406497 L7.47789474,22.4631579 C4.98526316,22.4631579 3.84432101,23.3740041 3.11760626,24.6691137 L3.11760626,22.7122174 L0,22.7122174 L0,33.1157895 L3.2774835,33.1157895 L3.2774835,28.7679218 C3.23219219,27.662797 3.65967344,26.5892529 4.4569762,25.8058331 C5.25427896,25.0224132 6.34914459,24.6001181 7.47789474,24.6406497 L7.47789474,24.6406497 Z" id="Path" fill="#CB2B99" fill-rule="nonzero"></path>
                        <path d="M40.1936842,12.5052632 L47.5612684,12.5052632 L52.8126316,7.2982694 L50.9956742,5.49666369 C49.9577673,6.4629914 48.3335889,6.43765212 47.3268562,5.43942541 C46.3201234,4.44119869 46.2945682,2.83074317 47.2691301,1.80160571 L45.4450474,0 L40.1936842,5.20699376 L40.1936842,12.5052632 Z" id="Path" fill="#CB2B99" fill-rule="nonzero"></path>
                        <polygon id="Path" fill="#3C3C3B" fill-rule="nonzero" points="37.5226689 15.1592612 37.5226689 7.87368421 34.3515789 11.0162058 34.3515789 18.2735988 34.3729091 18.2947368 41.7033885 18.2947368 44.8673684 15.1592612"></polygon>
                        <path d="M71.5884256,22.4631579 L70.4504633,22.4631579 L70.4504633,24.628509 L71.5884256,24.628509 C72.1187825,24.581116 72.6451314,24.754564 73.0414784,25.1073341 C73.4378255,25.4601042 73.668494,25.9604424 73.6782681,26.488581 C70.987238,26.488581 66.6,26.5524767 66.6,30.1377301 C66.6,32.232086 68.3677778,33.3396099 70.3216374,33.3396099 C71.6242407,33.4228402 72.877631,32.8320602 73.6353261,31.7777173 L73.6782681,31.7777173 L73.6782681,33.0840274 L76.6484211,33.0840274 L76.6484211,27.8161897 C76.6126361,24.351628 75.6535987,22.4631579 71.5884256,22.4631579 Z M73.6782681,29.2218931 C73.6782681,30.4998052 72.4973639,31.1671593 71.2234188,31.1671593 C70.5077193,31.1671593 69.6918219,30.8050842 69.6918219,30.0383369 C69.6918219,28.6184346 71.8890193,28.5403399 72.8766847,28.5403399 L73.6782681,28.5403399 L73.6782681,29.2218931 Z" id="Shape" fill="#3C3C3B" fill-rule="nonzero"></path>
                    </g>
                </g>
            </g>
        </g>
    </g>
</svg>