<?xml version="1.0" encoding="UTF-8"?>
<svg width="21px" height="20px" viewBox="0 0 21 20" version="1.1" xmlns="http://www.w3.org/2000/svg" xmlns:xlink="http://www.w3.org/1999/xlink">
    <!-- Generator: sketchtool 55.2 (78181) - https://sketchapp.com -->
    <title>EDC68A08-C1E7-4C71-A89C-D6103828D259</title>
    <desc>Created with sketchtool.</desc>
    <g id="Symbols" stroke="none" stroke-width="1" fill="none" fill-rule="evenodd">
        <g id="icon/social/pinterest" fill="#CB2B99" fill-rule="nonzero">
            <path d="M10.4504505,0 C4.7027027,0 3.90798505e-14,4.5 3.90798505e-14,10 C3.90798505e-14,15.5 4.7027027,20 10.4504505,20 C16.1981982,20 20.9009009,15.5 20.9009009,10 C20.9009009,4.5 16.1981982,0 10.4504505,0 Z M11.7036883,14.800781 C10.1361208,14.800781 9.29926854,13.5 9.29926854,13.5 C9.29926854,14.601563 7.42145323,18 6.8989307,19 C6.8989307,19 6.79279279,19.101563 6.68665593,18.898438 C6.68665593,18.199219 6.8989307,16.300781 7.94397575,11.800781 C8.15216753,10 7.83783784,9.398438 7.83783784,8.699219 C7.83783784,7 8.77674602,6.699219 9.29926854,6.699219 C10.0340658,6.699219 11.0791109,7 11.0791109,8.101563 C11.0791109,9.398438 9.92792793,9.800781 9.92792793,9.800781 C9.92792793,9.800781 9.82179106,10.101563 9.7197351,11.101563 C9.61359823,12 10.0340658,13.101563 11.6016334,13.101563 C14.214246,13.101563 14.6306306,9.699219 14.6306306,8.699219 C14.6306306,7.398438 13.5855856,4.800781 10.5565884,4.800781 C6.37640818,4.800781 5.74774775,8.300781 5.74774775,9.300781 C5.74774775,9.699219 5.85388566,10.398438 5.95594058,10.699219 C6.68665593,10.800781 6.68665593,11.800781 6.37640818,12.101563 C5.95594058,12.398438 4.07404332,12.800781 4.07404332,8.800781 C4.07404332,5 7.62964501,3 10.7647801,3 C13.6917235,3 16.9289135,5 16.9289135,8.699219 C16.8268586,12.199219 14.3163009,14.800781 11.7036883,14.800781 Z" id="Shape"></path>
        </g>
    </g>
</svg>