<?xml version="1.0" encoding="UTF-8"?>
<svg width="20px" height="20px" viewBox="0 0 20 20" version="1.1" xmlns="http://www.w3.org/2000/svg" xmlns:xlink="http://www.w3.org/1999/xlink">
    <!-- Generator: sketchtool 55.2 (78181) - https://sketchapp.com -->
    <title>9DB48CE0-404D-4924-9EAF-5C548484E15F</title>
    <desc>Created with sketchtool.</desc>
    <g id="Emails" stroke="none" stroke-width="1" fill="none" fill-rule="evenodd">
        <g id="Email" transform="translate(-803.000000, -640.000000)" fill="#CB2B99" fill-rule="nonzero">
            <g id="Group-2" transform="translate(430.000000, 640.000000)">
                <g id="icon/social/tiwtter/gray" transform="translate(373.000000, 0.000000)">
                    <path d="M18,0 L2,0 C0.898438,0 0,0.898438 0,2 L0,18 C0,19.101563 0.898438,20 2,20 L18,20 C19.101563,20 20,19.101563 20,18 L20,2 C20,0.898438 19.101563,0 18,0 Z M15.601563,6.800781 C15.601563,6.898438 15.601563,7 15.601563,7.199219 C15.601563,11 12.699219,15.398438 7.398438,15.398438 C5.800781,15.398438 4.300781,14.898438 3,14.101563 C3.199219,14.101563 3.5,14.101563 3.699219,14.101563 C5,14.101563 6.300781,13.601563 7.300781,12.898438 C6,12.898438 5,12 4.601563,10.898438 C4.800781,10.898438 5,11 5.101563,11 C5.398438,11 5.601563,11 5.898438,10.898438 C4.601563,10.601563 3.601563,9.5 3.601563,8.101563 C4,8.300781 4.398438,8.398438 4.898438,8.5 C4.101563,7.800781 3.601563,7 3.601563,6 C3.601563,5.5 3.699219,5 4,4.601563 C5.398438,6.300781 7.5,7.5 9.898438,7.601563 C9.898438,7.398438 9.800781,7.199219 9.800781,6.898438 C9.800781,5.300781 11.101563,4 12.699219,4 C13.5,4 14.300781,4.300781 14.800781,4.898438 C15.5,4.800781 16.101563,4.5 16.601563,4.199219 C16.398438,4.898438 15.898438,5.398438 15.300781,5.800781 C15.898438,5.699219 16.398438,5.601563 17,5.300781 C16.601563,5.898438 16.101563,6.398438 15.601563,6.800781 Z" id="Shape"></path>
                </g>
            </g>
        </g>
    </g>
</svg>